<svg width="120" height="40" viewBox="0 0 120 40" fill="none" xmlns="http://www.w3.org/2000/svg">
<g clip-path="url(#clip0_3626_46)">
<path d="M110.135 0.00013H9.53468C9.16798 0.00013 8.80568 0.00013 8.43995 0.00213C8.1338 0.00413 7.83009 0.00994 7.521 0.01483C6.84951 0.0227318 6.17961 0.0818063 5.5171 0.19154C4.85552 0.303663 4.21467 0.515046 3.61622 0.81854C3.0185 1.1246 2.47235 1.5223 1.99757 1.9972C1.5203 2.47077 1.12246 3.01815 0.81935 3.61829C0.5154 4.21724 0.304641 4.85907 0.19435 5.52161C0.0830109 6.18332 0.0230984 6.85265 0.01515 7.52361C0.00587 7.83021 0.00489 8.13783 0 8.44447V31.5587C0.00489 31.8692 0.00587 32.17 0.01515 32.4806C0.0231008 33.1516 0.0830134 33.8209 0.19435 34.4825C0.304336 35.1455 0.515108 35.7877 0.81935 36.3868C1.12233 36.985 1.52022 37.5302 1.99757 38.0011C2.47054 38.4781 3.01705 38.8761 3.61622 39.1798C4.21467 39.4841 4.85545 39.6968 5.5171 39.8106C6.17972 39.9195 6.84956 39.9786 7.521 39.9874C7.83009 39.9942 8.1338 39.9981 8.43995 39.9981C8.80567 40.0001 9.168 40.0001 9.53468 40.0001H110.135C110.494 40.0001 110.859 40.0001 111.219 39.9981C111.523 39.9981 111.836 39.9942 112.141 39.9874C112.811 39.9791 113.479 39.92 114.141 39.8106C114.804 39.696 115.448 39.4834 116.049 39.1798C116.647 38.8759 117.193 38.478 117.666 38.0011C118.142 37.5284 118.541 36.9836 118.848 36.3868C119.15 35.7872 119.358 35.1451 119.467 34.4825C119.578 33.8208 119.64 33.1516 119.652 32.4806C119.656 32.17 119.656 31.8692 119.656 31.5587C119.664 31.1954 119.664 30.8341 119.664 30.4649V9.53626C119.664 9.17005 119.664 8.80677 119.656 8.44447C119.656 8.13783 119.656 7.83021 119.652 7.52357C119.64 6.85255 119.578 6.18337 119.467 5.52157C119.358 4.85941 119.149 4.21763 118.848 3.61825C118.23 2.41533 117.252 1.43616 116.049 0.81845C115.448 0.515697 114.804 0.30437 114.141 0.19145C113.48 0.0812328 112.811 0.0221378 112.141 0.01469C111.836 0.00981 111.523 0.00395 111.219 0.002C110.859 0 110.494 0.00013 110.135 0.00013Z" fill="#A6A6A6"/>
<path d="M8.44291 39.125C8.13823 39.125 7.84091 39.1211 7.53862 39.1143C6.91241 39.1061 6.28765 39.0516 5.66948 38.9512C5.09307 38.8519 4.53469 38.6673 4.01274 38.4033C3.49559 38.1415 3.0239 37.7983 2.61574 37.3867C2.20168 36.98 1.85696 36.5082 1.59523 35.9902C1.33062 35.4688 1.1475 34.9099 1.05223 34.333C0.949358 33.7131 0.893698 33.0863 0.885734 32.458C0.879394 32.2471 0.871094 31.5449 0.871094 31.5449V8.44434C0.871094 8.44434 0.879934 7.75293 0.885784 7.5498C0.89341 6.92248 0.948746 6.29665 1.05131 5.67773C1.14675 5.09925 1.33002 4.53875 1.59477 4.01563C1.85554 3.49794 2.19835 3.02586 2.60991 2.61768C3.02102 2.20562 3.49422 1.8606 4.01225 1.59521C4.533 1.33209 5.09033 1.14873 5.66557 1.05127C6.28577 0.949836 6.91269 0.894996 7.54108 0.88721L8.4434 0.875H111.212L112.125 0.8877C112.748 0.895099 113.369 0.94945 113.983 1.05029C114.565 1.14898 115.128 1.33362 115.654 1.59814C116.692 2.13299 117.537 2.97916 118.069 4.01807C118.33 4.53758 118.51 5.09351 118.605 5.66699C118.708 6.29099 118.766 6.92174 118.778 7.5542C118.781 7.8374 118.781 8.1416 118.781 8.44434C118.789 8.81934 118.789 9.17627 118.789 9.53613V30.4648C118.789 30.8281 118.789 31.1826 118.781 31.54C118.781 31.8652 118.781 32.1631 118.777 32.4697C118.766 33.0909 118.709 33.7104 118.606 34.3232C118.513 34.9043 118.331 35.4675 118.066 35.9932C117.803 36.5056 117.46 36.9733 117.051 37.3789C116.642 37.7927 116.17 38.1379 115.651 38.4014C115.126 38.6674 114.564 38.8527 113.983 38.9512C113.365 39.0522 112.741 39.1067 112.114 39.1143C111.821 39.1211 111.515 39.125 111.217 39.125L110.133 39.127L8.44291 39.125Z" fill="black"/>
<path d="M19.0708 19.3663L10.0859 28.9032C10.0863 28.9051 10.087 28.9068 10.0873 28.9088C10.3628 29.9444 11.3087 30.7069 12.4313 30.7069C12.88 30.7069 13.3013 30.5856 13.6627 30.3726L13.6914 30.3558L23.8055 24.5195L19.0708 19.3663Z" fill="#EB3131"/>
<path d="M28.158 17.7433L28.1494 17.7374L23.7828 15.2061L18.8633 19.5837L23.7999 24.5196L28.1434 22.0134C28.9049 21.6023 29.4219 20.7995 29.4219 19.8738C29.4219 18.9546 28.912 18.1558 28.158 17.7433Z" fill="#F6B60B"/>
<path d="M10.0824 10.8027C10.0284 11.0019 10 11.2105 10 11.4272V28.2797C10 28.4959 10.0281 28.7052 10.0827 28.9037L19.3778 19.6106L10.0824 10.8027Z" fill="#5778C5"/>
<path d="M19.134 19.8538L23.7849 15.2043L13.6821 9.34688C13.3149 9.12694 12.8863 9 12.4277 9C11.3051 9 10.358 9.76391 10.0824 10.8007C10.082 10.8017 10.082 10.8024 10.082 10.8033L19.134 19.8538Z" fill="#3BAD49"/>
<path d="M94.0725 29.4099H95.7453V18.3973H94.0725V29.4099ZM109.14 22.3645L107.222 27.1388H107.165L105.175 22.3645H103.373L106.358 29.0372L104.656 32.7492H106.4L111 22.3649L109.14 22.3645ZM99.6525 28.159C99.1056 28.159 98.341 27.8895 98.341 27.2237C98.341 26.3738 99.293 26.0479 100.114 26.0479C100.849 26.0479 101.196 26.2035 101.643 26.4161C101.513 27.4363 100.619 28.159 99.6525 28.159ZM99.8551 22.1237C98.6439 22.1237 97.3898 22.648 96.8707 23.8097L98.3553 24.4188C98.6726 23.8097 99.2634 23.6116 99.8838 23.6116C100.749 23.6116 101.628 24.1211 101.643 25.0282V25.1414C101.34 24.9714 100.691 24.7164 99.8981 24.7164C98.297 24.7164 96.6681 25.5804 96.6681 27.1955C96.6681 28.6689 97.9806 29.6182 99.4508 29.6182C100.575 29.6182 101.196 29.1224 101.584 28.5413H101.643V29.3918H103.258V25.1695C103.258 23.2144 101.772 22.1237 99.8551 22.1237ZM89.5167 23.7051H87.1374V19.9305H89.5167C90.7673 19.9305 91.4772 20.9477 91.4772 21.8178C91.4772 22.6712 90.7672 23.7051 89.5167 23.7051ZM89.4736 18.3975H85.4653V29.4101H87.1375V25.2381H89.4737C91.3276 25.2381 93.1502 23.9195 93.1502 21.8182C93.1502 19.7172 91.3276 18.3975 89.4736 18.3975ZM67.6168 28.1608C66.4611 28.1608 65.4939 27.2097 65.4939 25.9046C65.4939 24.5844 66.4611 23.6199 67.6168 23.6199C68.7577 23.6199 69.6531 24.5844 69.6531 25.9046C69.6531 27.2097 68.7577 28.1608 67.6168 28.1608ZM69.5376 22.981H69.4797C69.1044 22.5412 68.3819 22.1438 67.4725 22.1438C65.5657 22.1438 63.8183 23.7903 63.8183 25.9046C63.8183 28.0046 65.5657 29.6366 67.4725 29.6366C68.3819 29.6366 69.1043 29.2391 69.4797 28.7853H69.5376V29.3242C69.5376 30.758 68.7577 31.5239 67.5012 31.5239C66.4762 31.5239 65.8406 30.8003 65.5804 30.1902L64.122 30.7861C64.5405 31.7791 65.6522 33 67.5013 33C69.4658 33 71.1267 31.8645 71.1267 29.097V22.3708H69.5376L69.5376 22.981ZM72.2823 29.4095H73.9569V18.3969H72.2823V29.4095ZM76.4268 25.7767C76.3837 24.3291 77.5684 23.5913 78.4201 23.5913C79.0847 23.5913 79.6474 23.9179 79.8359 24.3858L76.4268 25.7767ZM81.626 24.5276C81.3084 23.6908 80.3409 22.1438 78.3623 22.1438C76.3977 22.1438 74.7659 23.6622 74.7659 25.8902C74.7659 27.9906 76.3837 29.6367 78.5497 29.6367C80.2971 29.6367 81.3085 28.5869 81.7276 27.9764L80.4277 27.1248C79.9942 27.7494 79.4024 28.1609 78.5497 28.1609C77.698 28.1609 77.0911 27.7776 76.7018 27.0255L81.7994 24.9537L81.626 24.5276ZM41.0086 23.2934V24.8827H44.8791C44.7636 25.7767 44.4603 26.4294 43.998 26.8836C43.4346 27.4369 42.5536 28.0473 41.0085 28.0473C38.6254 28.0473 36.7625 26.16 36.7625 23.8185C36.7625 21.4769 38.6254 19.5894 41.0085 19.5894C42.294 19.5894 43.2325 20.0862 43.9258 20.7248L45.0671 19.6034C44.0992 18.6953 42.814 18 41.0085 18C37.744 18 35 20.6112 35 23.8185C35 27.0254 37.744 29.6367 41.0085 29.6367C42.7703 29.6367 44.0992 29.0689 45.1389 28.0047C46.2077 26.9545 46.54 25.4787 46.54 24.2865C46.54 23.9179 46.5109 23.5773 46.4531 23.2934H41.0086ZM50.9409 28.1608C49.7852 28.1608 48.7886 27.2242 48.7886 25.8902C48.7886 24.5421 49.7852 23.6199 50.9409 23.6199C52.0961 23.6199 53.0927 24.5421 53.0927 25.8902C53.0927 27.2242 52.0961 28.1608 50.9409 28.1608ZM50.9409 22.1438C48.8317 22.1438 47.1133 23.719 47.1133 25.8902C47.1133 28.0473 48.8317 29.6367 50.9409 29.6367C53.0493 29.6367 54.7681 28.0473 54.7681 25.8902C54.7681 23.719 53.0493 22.1438 50.9409 22.1438ZM59.2898 28.1608C58.1349 28.1608 57.138 27.2242 57.138 25.8902C57.138 24.5421 58.135 23.6199 59.2898 23.6199C60.4454 23.6199 61.4417 24.5421 61.4417 25.8902C61.4417 27.2242 60.4454 28.1608 59.2898 28.1608ZM59.2898 22.1438C57.1813 22.1438 55.463 23.719 55.463 25.8902C55.463 28.0473 57.1813 29.6367 59.2898 29.6367C61.399 29.6367 63.1174 28.0473 63.1174 25.8902C63.1174 23.719 61.399 22.1438 59.2898 22.1438Z" fill="white"/>
<path d="M40.5983 10.8H37.8961V11.4889H39.921C39.866 12.0511 39.6488 12.4924 39.2827 12.813C38.9165 13.1336 38.449 13.2946 37.8961 13.2946C37.2897 13.2946 36.7759 13.0769 36.3548 12.6446C35.9422 12.2032 35.7324 11.6575 35.7324 10.9999C35.7324 10.3425 35.9422 9.79669 36.3548 9.35538C36.7759 8.923 37.2897 8.70677 37.8961 8.70677C38.2074 8.70677 38.5041 8.76193 38.7761 8.88274C39.0482 9.00345 39.2667 9.17197 39.4375 9.38821L39.9514 8.85888C39.7183 8.58597 39.4231 8.37727 39.0568 8.22516C38.6907 8.07305 38.3086 8.00005 37.8961 8.00005C37.087 8.00005 36.4011 8.28928 35.8409 8.86635C35.2808 9.44482 35 10.1576 35 11C35 11.8423 35.2808 12.5566 35.8409 13.1337C36.401 13.7106 37.087 14 37.8961 14C38.7456 14 39.423 13.7196 39.9441 13.15C40.4028 12.6759 40.6373 12.0348 40.6373 11.2326C40.6373 11.0969 40.6214 10.9522 40.5983 10.8ZM41.6451 8.12816V13.8717H44.9001V13.1664H42.3615V11.3444H44.6512V10.6555H42.3615V8.83496H44.9001V8.12813L41.6451 8.12816ZM49.4643 8.83498V8.12816H45.6332V8.83498H47.1906V13.8717H47.907V8.83498H49.4643ZM52.9327 8.12816H52.2163V13.8717H52.9327V8.12816ZM57.6615 8.83498V8.12816H53.8305V8.83498H55.3877V13.8717H56.1041V8.83498H57.6615ZM64.8909 8.87524C64.338 8.28924 63.6607 8 62.8516 8C62.0411 8 61.3638 8.28923 60.8109 8.8663C60.258 9.4359 59.9859 10.1501 59.9859 10.9999C59.9859 11.8497 60.258 12.564 60.8109 13.1337C61.3638 13.7106 62.0411 13.9999 62.8516 13.9999C63.6534 13.9999 64.3379 13.7106 64.8909 13.1337C65.4438 12.5641 65.7158 11.8498 65.7158 10.9999C65.7158 10.1575 65.4438 9.44473 64.8909 8.87524ZM61.3247 9.35533C61.7372 8.92295 62.2437 8.70672 62.8516 8.70672C63.458 8.70672 63.9646 8.92296 64.3698 9.35533C64.7823 9.78026 64.9849 10.3349 64.9849 10.9999C64.9849 11.6664 64.7823 12.2195 64.3698 12.6445C63.9646 13.0769 63.458 13.2946 62.8516 13.2946C62.2437 13.2946 61.7371 13.0769 61.3247 12.6445C60.9208 12.2106 60.7182 11.6664 60.7182 10.9999C60.7182 10.3349 60.9208 9.78919 61.3247 9.35533ZM67.4179 10.2947L67.3875 9.18678H67.4179L70.2518 13.8716H71V8.1281H70.2836V11.4889L70.314 12.5968H70.2836L67.5742 8.1281H66.7015V13.8716H67.4179V10.2947Z" fill="white" stroke="white" stroke-width="0.26666" stroke-miterlimit="10"/>
</g>
<defs>
<clipPath id="clip0_3626_46">
<rect width="119.664" height="40" fill="white"/>
</clipPath>
</defs>
</svg>
